<?xml version="1.0" encoding="utf-8"?>
<!-- Uploaded to: SVG Repo, www.svgrepo.com, Generator: SVG Repo Mixer Tools -->
<svg width="800px" height="800px" viewBox="0 0 1024 1024" class="icon"  version="1.1" xmlns="http://www.w3.org/2000/svg"><path d="M993.763 493.538v35c0 13.331-6.04 26.663-18.135 37.137-140.149 121.422-280.35 242.794-420.49 364.219-11.813 10.237-25.813 15.501-42.454 15.501v-35c16.644 0 30.641-5.264 42.454-15.501 140.142-121.425 280.336-242.802 420.49-364.219 12.095-10.474 18.135-23.801 18.135-37.137z" fill="#EE7A67" /><path d="M30.239 528.366v-3.5-1.75-3.5-3.5-1.75-3.5-3.5-1.75-3.5-3.5-1.75-3.5c0 14.708 6.701 29.313 19.037 40.02C187.724 653.45 326.325 773.382 464.837 893.403c13.002 11.262 28.74 16.468 47.853 16.996v35c-19.108-0.528-34.851-5.735-47.853-16.996C326.325 808.382 187.725 688.45 49.276 568.386c-12.337-10.705-19.037-25.312-19.037-40.02z" fill="#EE7A67" /><path d="M510.786 76.601c16.263 0 32.546 5.362 44.946 16.097 139.949 121.188 279.9 242.375 419.818 363.584 24.241 20.995 24.295 53.414 0.079 74.396C835.48 652.1 695.28 773.476 555.141 894.897c-11.814 10.238-25.813 15.502-42.451 15.502-19.109-0.528-34.853-5.734-47.854-16.994C326.324 773.382 187.724 653.45 49.275 533.386c-19.581-16.987-24.96-43.81-11.895-65.252 3.919-6.437 8.669-11.829 14.465-16.85 138.109-119.55 276.179-239.132 414.262-358.717 12.296-10.64 28.478-15.966 44.679-15.966z" fill="#F39F73" /><path d="M298.768 319.015v-16.8a10 10 0 0 0 0.006 0.386c0.192 6.024 4.847 8.948 10.786 11.078 18.042 6.461 35.962 13.181 54.046 19.581 3.601 1.282 4.739 2.871 4.739 6.249v16.8c0-3.378-1.138-4.967-4.739-6.25-18.084-6.399-36.006-13.121-54.046-19.58-5.938-2.129-10.594-5.054-10.786-11.079a12.357 12.357 0 0 1-0.006-0.385z" fill="#C34E4E" /><path d="M368.346 339.509v16.8c0-3.378-1.138-4.967-4.738-6.25-18.084-6.399-36.007-13.121-54.047-19.58-5.938-2.129-10.594-5.054-10.786-11.079a10.03 10.03 0 0 1-0.006-0.386v-16.8a10 10 0 0 0 0.006 0.386c0.192 6.024 4.847 8.948 10.786 11.078 18.043 6.461 35.963 13.181 54.047 19.581 3.6 1.283 4.738 2.873 4.738 6.25" fill="#C34E4E" /><path d="M368.243 591.771v-16.802c0 1.315 0.026 2.634 0.151 3.939 1.744 18.018 11.976 31.042 30.944 38.662 4.365 1.746 9.143 2.707 13.739 4.032v16.802c-4.597-1.326-9.374-2.288-13.739-4.033-18.97-7.621-29.201-20.646-30.944-38.663-0.124-1.306-0.151-2.622-0.151-3.937z" fill="#C34E4E" /><path d="M413.08 621.604v16.801c-4.597-1.326-9.372-2.287-13.739-4.033-18.971-7.621-29.2-20.646-30.944-38.663-0.125-1.307-0.152-2.623-0.152-3.938v-16.8c0 1.315 0.025 2.633 0.152 3.938 1.744 18.019 11.974 31.042 30.944 38.663 4.367 1.746 9.142 2.707 13.739 4.032" fill="#C34E4E" /><path d="M616.102 622.067v16.8H502.329v-16.8h113.773z" fill="#C34E4E" /><path d="M616.102 622.067v16.8H502.329v-16.8h113.773" fill="#C34E4E" /><path d="M653.757 639.366c-0.372-5.268-0.372-5.268-0.037-16.79a28.96 28.96 0 0 1 6.17-0.851v16.802a28.995 28.995 0 0 0-6.133 0.839z" fill="#C34E4E" /><path d="M659.89 621.727v16.802a27.776 27.776 0 0 0-3.065 0.254v-16.8a28.02 28.02 0 0 1 3.065-0.256M656.822 621.979v16.8a28.816 28.816 0 0 0-6.045 1.5v-16.8a28.94 28.94 0 0 1 6.045-1.5" fill="#C34E4E" /><path d="M646.245 642.422c-6.841 4.025-11.407 10.729-11.433 18.047v-16.8c0.029-9.745 8.125-18.402 18.906-21.092-0.333 11.523-0.333 11.523 0.037 16.791a28.185 28.185 0 0 0-7.51 3.054c-0.034-0.188-0.087-0.376-0.125-0.563-0.055 0.046-0.109 0.091-0.157 0.144 0.048-0.052 0.104-0.097 0.157-0.144 0.036 0.187 0.09 0.373 0.125 0.563z" fill="#C34E4E" /><path d="M656.822 621.979v16.8a28.816 28.816 0 0 0-6.045 1.5v-16.8a28.94 28.94 0 0 1 6.045-1.5M650.777 623.479v16.802a27.815 27.815 0 0 0-5.386 2.664v-16.8a28.051 28.051 0 0 1 5.386-2.666" fill="#C34E4E" /><path d="M645.393 626.146v16.801a25.267 25.267 0 0 0-5.677 4.922v-16.8a25.196 25.196 0 0 1 5.677-4.923" fill="#C34E4E" /><path d="M639.717 631.067v16.8c-2.824 3.327-4.595 7.304-4.868 11.523v-16.8c0.272-4.219 2.044-8.196 4.868-11.523" fill="#C34E4E" /><path d="M634.849 642.592v16.8c-0.021 0.356-0.033 0.718-0.034 1.077v-16.8c-0.001-0.361 0.012-0.721 0.034-1.077" fill="#C34E4E" /><path d="M457.433 638.494c-14.122 0.122-25.521 10.038-25.594 22.258v-16.8c0.071-12.22 11.472-22.138 25.594-22.258 0.081-0.003 0.16-0.003 0.242-0.003 0.111 0 0.224 0 0.331 0.003 14.042 0.15 25.382 10.004 25.443 22.251v16.8c-0.063-12.247-11.401-22.098-25.443-22.251-0.111-0.003-0.222-0.003-0.331-0.003-0.082 0-0.16 0-0.242 0.003z" fill="#C34E4E" /><path d="M483.448 643.945v16.8c-0.061-12.247-11.4-22.098-25.442-22.251-0.111-0.003-0.222-0.003-0.331-0.003-0.082 0-0.161 0-0.242 0.003a30.05 30.05 0 0 0-3.79 0.27v-16.8c1.236-0.169 2.5-0.26 3.79-0.27 0.081-0.003 0.16-0.003 0.242-0.003 0.111 0 0.224 0 0.331 0.003 14.042 0.154 25.382 10.004 25.442 22.251" fill="#C34E4E" /><path d="M453.643 621.965v16.8a28.928 28.928 0 0 0-6.044 1.497v-16.8a28.881 28.881 0 0 1 6.044-1.497" fill="#C34E4E" /><path d="M447.6 623.462v16.8a27.246 27.246 0 0 0-5.242 2.593v-16.801a27.128 27.128 0 0 1 5.242-2.592M442.357 626.054v16.802a24.598 24.598 0 0 0-5.516 4.782v-16.8a24.537 24.537 0 0 1 5.516-4.784" fill="#C34E4E" /><path d="M436.842 630.838v16.8c-2.884 3.399-4.684 7.525-4.964 12v-16.8c0.28-4.475 2.08-8.603 4.964-12M431.877 642.838v16.8c-0.021 0.37-0.036 0.742-0.037 1.115v-16.8c0.002-0.373 0.014-0.745 0.037-1.115" fill="#C34E4E" /><path d="M660.783 638.516c-0.3 0-0.598 0.002-0.896 0.013v-16.802c0.298-0.009 0.596-0.011 0.896-0.011 13.905 0 25.402 9.567 25.815 21.67 0.008 0.194 0.012 0.387 0.013 0.577v16.8c-0.001-0.19-0.005-0.383-0.013-0.577-0.41-12.102-11.91-21.67-25.815-21.67z" fill="#C34E4E" /><path d="M686.613 643.963v16.8a18.96 18.96 0 0 0-0.014-0.578c-0.414-12.101-11.912-21.669-25.815-21.669-0.3 0-0.597 0.002-0.896 0.013v-16.802c0.299-0.009 0.596-0.011 0.896-0.011 13.905 0 25.403 9.567 25.815 21.669 0.008 0.194 0.012 0.386 0.014 0.578" fill="#C34E4E" /><path d="M686.614 643.963v16.8c0.069 12.096-11.052 22.029-25.202 22.398v-16.8c14.151-0.369 25.271-10.305 25.202-22.398z" fill="#C34E4E" /><path d="M686.614 643.963v16.8c0.002 0.444-0.011 0.885-0.035 1.321v-16.801c0.025-0.437 0.037-0.876 0.035-1.32M686.577 645.283v16.801c-0.274 4.43-2.053 8.522-4.915 11.902v-16.8c2.862-3.379 4.641-7.473 4.915-11.903M681.662 657.187v16.801a24.374 24.374 0 0 1-5.507 4.78v-16.8a24.402 24.402 0 0 0 5.507-4.781M676.155 661.968v16.8a27.223 27.223 0 0 1-5.273 2.608v-16.8a27.166 27.166 0 0 0 5.273-2.608M670.882 664.576v16.8a29.325 29.325 0 0 1-6.143 1.518v-16.8a29.371 29.371 0 0 0 6.143-1.518" fill="#C34E4E" /><path d="M664.741 666.094v16.8a31.202 31.202 0 0 1-3.329 0.268v-16.8c1.13-0.031 2.24-0.121 3.329-0.268" fill="#C34E4E" /><path d="M634.814 660.507v-16.8c0 0.264 0.006 0.529 0.02 0.796 0.002 0.095 0.008 0.19 0.014 0.287 0.697 12.058 11.992 21.506 25.812 21.581v16.8c-13.816-0.075-25.112-9.522-25.812-21.581-0.006-0.097-0.012-0.191-0.014-0.287-0.014-0.267-0.02-0.532-0.02-0.796z" fill="#C34E4E" /><path d="M660.657 666.371v16.8c-13.817-0.075-25.112-9.523-25.813-21.581-0.005-0.097-0.011-0.192-0.014-0.287-0.012-0.267-0.019-0.53-0.019-0.796v-16.8c0 0.264 0.007 0.529 0.019 0.796 0.003 0.095 0.009 0.19 0.014 0.287 0.699 12.059 11.994 21.507 25.813 21.581" fill="#C34E4E" /><path d="M483.45 643.943v16.801c0.061 12.404-11.472 22.442-25.785 22.442-0.353 0-0.685-0.006-1.017-0.017-13.687-0.455-24.7-10.221-24.809-22.132v-16.8c0.108 11.911 11.122 21.675 24.809 22.132 0.333 0.011 0.664 0.015 1.017 0.015 14.314 0.002 25.846-10.035 25.785-22.441z" fill="#C34E4E" /><path d="M483.45 643.943v16.801c0.003 0.445-0.013 0.887-0.038 1.327v-16.8c0.026-0.44 0.041-0.881 0.038-1.328M483.412 645.271v16.801c-0.279 4.483-2.075 8.611-4.955 12.01V657.28c2.88-3.395 4.675-7.524 4.955-12.009" fill="#C34E4E" /><path d="M478.458 657.28v16.801a24.448 24.448 0 0 1-5.487 4.76v-16.8a24.398 24.398 0 0 0 5.487-4.761M472.97 662.043v16.8a26.837 26.837 0 0 1-5.217 2.578v-16.8a27.065 27.065 0 0 0 5.217-2.578" fill="#C34E4E" /><path d="M467.755 664.621v16.8a28.596 28.596 0 0 1-6.022 1.492v-16.801a28.656 28.656 0 0 0 6.022-1.491M461.73 666.112v16.801a30.176 30.176 0 0 1-5.082 0.256c-13.687-0.455-24.7-10.221-24.809-22.132v-16.8c0.108 11.911 11.122 21.675 24.809 22.132 0.332 0.011 0.664 0.015 1.017 0.015a29.662 29.662 0 0 0 4.065-0.272" fill="#C34E4E" /><path d="M396.862 548.129c-0.898-0.383-1.865-0.628-2.993-0.996 0 10.841-0.656 21.456 0.171 31.987 0.918 11.521 11.725 19.711 25.089 20.348 1.765 0.081 3.53 0.086 5.303 0.086 34.182 0.011 67.394 0.011 100.618 0.011 22.146-0.007 44.292-0.007 66.438-0.007 22.145 0 44.291 0 66.438 0.007 24.474 0.01 43.504 11.218 51.216 30.028 6.845 16.719 1.392 35.128-14.073 47.463-9.479 7.562-21.95 11.639-34.485 11.639-7.156 0-14.337-1.329-20.993-4.098-19.687-8.188-29.887-21.988-30.159-41.026-0.103-7.508 2.309-14.508 6.675-21.502H502.332c7.128 12.229 8.843 24.688 3.309 37.563-3.932 9.148-10.693 16.401-20.069 21.729-8.578 4.869-18.3 7.26-27.981 7.26-11.859 0-23.659-3.587-33.245-10.594-14.586-10.656-25.967-31.992-11.26-56.419-4.596-1.326-9.372-2.287-13.739-4.033-18.97-7.62-29.199-20.646-30.944-38.662-0.21-2.183-0.142-4.392-0.142-6.592-0.01-77.604-0.041-155.211 0.09-232.809 0-3.378-1.137-4.967-4.737-6.25-18.084-6.399-36.007-13.121-54.046-19.581-5.939-2.129-10.595-5.054-10.787-11.078-0.193-5.815 3.939-9.158 9.707-11.295h6.27c16.693 6.17 33.374 12.36 50.067 18.522 6.038 2.225 12.116 4.364 18.155 6.573 8.697 3.178 10.694 5.751 10.694 13.81 0.01 10.607 0 21.213 0 31.819v4.427c15.732 1.885 31.075 3.72 46.428 5.561 35.765 4.279 71.527 8.563 107.303 12.841 33.394 3.998 66.8 7.988 100.204 11.968 22.023 2.628 44.05 5.212 66.072 7.874 6.874 0.829 11.381 5.115 11.393 11.095 0.062 31.172 0.424 62.348-0.161 93.51-0.443 24.128-23.296 43.421-51.136 43.481-38.716 0.084-77.443 0.106-116.162 0.106-45.815 0-91.616-0.031-137.433-0.036-8.18 0.001-15.961-1.588-23.32-4.73z m-3.254-98.849c-0.001 18.947 0.004 37.896 0.028 56.843 0.021 15.04 11.129 24.759 28.627 24.766 41.443 0.029 82.89 0.046 124.331 0.046s82.884-0.017 124.322-0.046c17.53-0.009 28.548-9.498 28.647-24.73 0.062-9.699 0.08-19.4 0.08-29.102 0.002-9.702-0.013-19.402-0.01-29.104 0.002-6.467 0.01-12.935 0.029-19.399 0-2.558-0.805-3.545-3.931-3.876-15.987-1.748-31.937-3.73-47.899-5.632-36.058-4.304-72.125-8.606-108.189-12.92-35.762-4.268-71.525-8.563-107.291-12.832-12.701-1.518-25.412-2.994-38.735-4.565v3.708c0.001 18.948-0.009 37.895-0.009 56.843M659.89 621.727c-13.711 0.401-25.041 10.41-25.075 21.942 0 0.279 0.007 0.557 0.019 0.835l0.014 0.287c0.699 12.058 11.992 21.506 25.65 21.58h0.161c0.25 0 0.503 0 0.753-0.008 14.149-0.371 25.271-10.306 25.203-22.4a18.96 18.96 0 0 0-0.014-0.578c-0.413-12.102-11.911-21.669-25.815-21.669-0.302 0-0.598 0.002-0.896 0.011m-228.051 22.226v0.287c0.109 11.911 11.124 21.676 24.808 22.131 0.334 0.013 0.666 0.017 0.998 0.017 14.334 0 25.865-10.037 25.806-22.44-0.063-12.247-11.401-22.099-25.443-22.251-0.11-0.003-0.222-0.003-0.331-0.003-0.082 0-0.161 0-0.242 0.003-14.125 0.118-25.525 10.035-25.596 22.256" fill="#E16460" /><path d="M393.618 388.728c13.324 1.572 26.037 3.046 38.735 4.565 35.764 4.269 71.527 8.563 107.291 12.832 36.066 4.313 72.133 8.616 108.188 12.921 15.965 1.902 31.913 3.884 47.901 5.63 3.124 0.332 3.931 1.318 3.931 3.877-0.023 6.466-0.029 12.934-0.03 19.399-0.002 9.7 0.013 19.402 0.01 29.104-0.002 9.7-0.019 19.402-0.079 29.103-0.101 15.232-11.116 24.723-28.647 24.729-41.439 0.029-82.881 0.047-124.324 0.047-41.439 0-82.887-0.018-124.329-0.047-17.5-0.008-28.607-9.725-28.629-24.766-0.025-18.946-0.029-37.893-0.028-56.842 0-18.948 0.01-37.895 0.01-56.843v-3.709z" fill="#F8C8B4" /><path d="M396.862 548.129v16.8c-0.898-0.383-1.865-0.628-2.993-0.995v-16.801c1.129 0.368 2.095 0.613 2.993 0.996z" fill="#C34E4E" /><path d="M396.862 548.129v16.8c-0.898-0.383-1.865-0.628-2.993-0.995v-16.801c1.129 0.368 2.095 0.613 2.993 0.996" fill="#C34E4E" /><path d="M725.233 468.966v16.821c0 13.445-0.075 26.887-0.327 40.329-0.442 24.128-23.294 43.421-51.136 43.481-38.717 0.084-77.442 0.106-116.161 0.106-45.816 0-91.617-0.031-137.434-0.036-8.174 0-15.955-1.59-23.313-4.729v-16.801c7.357 3.142 15.14 4.73 23.313 4.73 45.814 0.004 91.617 0.036 137.434 0.036 38.718 0 77.443-0.023 116.161-0.107 27.842-0.062 50.692-19.353 51.136-43.48 0.252-13.452 0.327-26.901 0.327-40.35z" fill="#C34E4E" /><path d="M725.233 468.966v16.8c0 13.448-0.075 26.898-0.327 40.344a44.353 44.353 0 0 1-0.068 1.715v-16.8c0.033-0.566 0.058-1.14 0.068-1.715 0.252-13.446 0.327-26.895 0.327-40.344M724.837 511.023v16.8c-0.555 8.803-4.092 16.901-9.745 23.58v-16.802c5.653-6.675 9.191-14.775 9.745-23.578M715.092 534.602v16.801c-3.07 3.626-6.765 6.833-10.942 9.502v-16.8c4.177-2.67 7.871-5.877 10.942-9.503M704.148 544.104v16.8a53.853 53.853 0 0 1-10.442 5.164v-16.801a53.85 53.85 0 0 0 10.442-5.163M693.706 549.268v16.801a57.369 57.369 0 0 1-12.012 2.979v-16.801a57.369 57.369 0 0 0 12.012-2.979M681.694 552.246v16.801a59.364 59.364 0 0 1-7.926 0.544c-38.715 0.085-77.441 0.106-116.16 0.106-45.816 0-91.617-0.031-137.434-0.035-8.175 0-15.955-1.591-23.314-4.732v-16.8c7.357 3.143 15.14 4.731 23.314 4.731 45.814 0.005 91.616 0.036 137.434 0.036 38.717 0 77.443-0.023 116.16-0.106a59.363 59.363 0 0 0 7.926-0.545" fill="#C34E4E" /><path d="M660.78 621.713c13.908 0.003 25.405 9.569 25.819 21.67 0.008 0.196 0.012 0.386 0.014 0.579 0.068 12.094-11.053 22.029-25.203 22.398-0.251 0.008-0.503 0.011-0.755 0.011-13.817-0.075-25.112-9.523-25.812-21.581a9.494 9.494 0 0 1-0.014-0.287 13.667 13.667 0 0 1-0.02-0.835c0.033-11.532 11.363-21.542 25.075-21.942 0.304-0.008 0.603-0.013 0.896-0.013z" fill="#EF836A" /><path d="M457.676 621.691c0.111 0 0.221 0 0.331 0.003 14.042 0.147 25.383 10.004 25.443 22.249 0.061 12.404-11.472 22.441-25.785 22.441-0.353 0-0.685-0.004-1.017-0.015-13.687-0.455-24.7-10.221-24.809-22.132v-0.287c0.07-12.222 11.472-22.138 25.592-22.26l0.245 0.001z" fill="#EF836A" /><path d="M508.914 644.284v16.8c0 5.056-1.053 10.168-3.278 15.349-3.931 9.147-10.694 16.4-20.069 21.729-8.578 4.867-18.301 7.258-27.981 7.258-11.859 0-23.659-3.587-33.245-10.594-9.779-7.146-18.118-19.092-18.118-33.553v-16.801c0 14.461 8.338 26.406 18.118 33.554 9.585 7.008 21.386 10.594 33.245 10.594 9.681 0 19.402-2.391 27.981-7.258 9.375-5.328 16.14-12.58 20.069-21.729 2.225-5.181 3.278-10.293 3.278-15.349z" fill="#C34E4E" /><path d="M508.914 644.284v16.8c0 0.727-0.021 1.455-0.065 2.185v-16.8c0.046-0.73 0.065-1.459 0.065-2.185" fill="#C34E4E" /><path d="M508.85 646.469v16.8c-0.263 4.345-1.309 8.729-3.213 13.164a42.858 42.858 0 0 1-6.727 10.866v-16.8a42.875 42.875 0 0 0 6.727-10.867c1.905-4.435 2.95-8.82 3.213-13.163M498.909 670.499v16.8c-3.004 3.541-6.619 6.655-10.82 9.339v-16.8c4.203-2.684 7.818-5.798 10.82-9.339" fill="#C34E4E" /><path d="M488.091 679.838v16.8a54.788 54.788 0 0 1-10.641 5.281v-16.8a54.14 54.14 0 0 0 8.117-3.76 59.39 59.39 0 0 0 2.524-1.521M477.448 685.118v16.8a57.123 57.123 0 0 1-11.937 2.963v-16.8a57.123 57.123 0 0 0 11.937-2.963" fill="#C34E4E" /><path d="M465.512 688.081v16.8a58.756 58.756 0 0 1-7.927 0.537c-11.859 0-23.659-3.588-33.245-10.595-9.779-7.146-18.118-19.091-18.118-33.553v-16.8c0 14.461 8.338 26.405 18.118 33.553 9.585 7.009 21.386 10.595 33.245 10.595 2.648 0 5.299-0.18 7.927-0.537" fill="#C34E4E" /><path d="M712.048 644.165V660.97c0 12.177-5.935 24.083-16.979 32.893-9.479 7.561-21.95 11.638-34.485 11.638-7.156 0-14.337-1.329-20.993-4.096-19.687-8.188-29.887-21.99-30.159-41.028a23.21 23.21 0 0 1-0.004-0.455v-16.8c0 0.148 0.001 0.303 0.004 0.455 0.272 19.038 10.474 32.841 30.159 41.027 6.656 2.768 13.837 4.097 20.993 4.097 12.535 0 25.004-4.076 34.485-11.638 11.043-8.816 16.979-20.723 16.979-32.898z" fill="#C34E4E" /><path d="M712.048 644.164v16.8c0 0.77-0.021 1.532-0.069 2.296v-16.801c0.046-0.763 0.069-1.526 0.069-2.295M711.979 646.459v16.801c-0.521 8.485-3.92 16.749-9.912 23.83v-16.801c5.992-7.08 9.391-15.345 9.912-23.83M702.065 670.288v16.8a50.133 50.133 0 0 1-11.203 9.773V680.06a50.215 50.215 0 0 0 4.205-3.004 50.07 50.07 0 0 0 6.998-6.768M690.862 680.061v16.801a53.366 53.366 0 0 1-10.343 5.104v-16.8a53.485 53.485 0 0 0 10.343-5.105" fill="#C34E4E" /><path d="M680.521 685.166v16.8a57.626 57.626 0 0 1-12.051 2.991v-16.8a57.564 57.564 0 0 0 12.051-2.991" fill="#C34E4E" /><path d="M668.471 688.157v16.8a58.67 58.67 0 0 1-7.889 0.536c-7.156 0-14.337-1.329-20.993-4.096-19.687-8.188-29.887-21.99-30.159-41.028a23.278 23.278 0 0 1-0.004-0.455v-16.8c0 0.147 0.001 0.303 0.004 0.455 0.272 19.038 10.474 32.841 30.159 41.026 6.656 2.769 13.837 4.098 20.993 4.098 2.642 0 5.28-0.18 7.889-0.536" fill="#C34E4E" /></svg>